# xmcd
#
# Track frame offsets: 
#        150
#        3292
#        14195
#        27780
#        39605
#        44025
#        56442
#        68245
#        80655
#        82950
#        96470
#        106855
#        110555
#        123780
#
# Disc length: 1803 seconds
#
# Revision: 0
# Processed by: cddbd v1.4PL0 Copyright (c) Steve Scherf et al.
# Submitted via: ExactAudioCopy v0.90b2
#
DISCID=b507090e
DTITLE=Various Artist - Country Music Cavalcade (The Golden Dream Of 
DTITLE=Hank Williams) - Disc 1
DYEAR=1900
DGENRE=Country
TTITLE0=The True Story Of Hank Williams Life - (Narration By James A. 
TTITLE0=Pilkington)
TTITLE1=I Can't Help It (If I'm Still In Love With You)
TTITLE2=Beyond The Sunset
TTITLE3=Settin' The Woods On Fire
TTITLE4=The True Story Of Hank Williams, Cont. - (Narration By James A
TTITLE4=Pilkington) 
TTITLE5=Lovesick Blues
TTITLE6=You Win Again
TTITLE7=Cold Cold Heart
TTITLE8=The True Story Of Hank Willimas Life, Cont. - (Narration By Ja
TTITLE8=mes A. Pilkington)
TTITLE9=Be Careful Of Stones That You Throw
TTITLE10=No One Will Ever Know
TTITLE11=The True Story Of Hank Williams, Cont. - (Narration By James 
TTITLE11=A. Pilkington)
TTITLE12=Hey Good Lookin'
TTITLE13=Kaw-Liga
EXTD=
EXTT0=
EXTT1=
EXTT2=
EXTT3=
EXTT4=
EXTT5=
EXTT6=
EXTT7=
EXTT8=
EXTT9=
EXTT10=
EXTT11=
EXTT12=
EXTT13=
PLAYORDER=
